<svg width="64" height="64" viewBox="0 0 64 64" fill="none" xmlns="http://www.w3.org/2000/svg">
  <circle cx="32" cy="32" r="31" stroke="#E0BF82" stroke-opacity="0.35"/>
  <path d="M32 45V22" stroke="#EBD7B1" stroke-width="2.4" stroke-linecap="round"/>
  <path d="M32 45L26 54H38L32 45Z" fill="#EBD7B1"/>
  <path d="M32 26C28.8 25.2 25.8 22.2 24.6 18.8C28.8 18.6 31.3 20.7 32 26Z" fill="#EBD7B1"/>
  <path d="M31.4 30.2C27.7 29.2 24.9 26.4 23.6 22.7C28.1 22.5 30.9 24.7 31.4 30.2Z" fill="#EBD7B1" opacity="0.8"/>
  <path d="M32 26C35.2 25.2 38.2 22.2 39.4 18.8C35.2 18.6 32.7 20.7 32 26Z" fill="#EBD7B1"/>
  <path d="M32.6 30.2C36.3 29.2 39.1 26.4 40.4 22.7C35.9 22.5 33.1 24.7 32.6 30.2Z" fill="#EBD7B1" opacity="0.8"/>
  <path d="M29 34.2C25.4 33.8 22 31.8 19.8 29C23.8 27.3 27 28.7 29 34.2Z" fill="#EBD7B1" opacity="0.9"/>
  <path d="M35 34.2C38.6 33.8 42 31.8 44.2 29C40.2 27.3 37 28.7 35 34.2Z" fill="#EBD7B1" opacity="0.9"/>
  <path d="M28.7 39.2C25.5 39.1 22.3 37.8 19.8 35.5C23.1 33.6 26.3 34.2 28.7 39.2Z" fill="#EBD7B1" opacity="0.75"/>
  <path d="M35.3 39.2C38.5 39.1 41.7 37.8 44.2 35.5C40.9 33.6 37.7 34.2 35.3 39.2Z" fill="#EBD7B1" opacity="0.75"/>
</svg>
